<mxfile host="app.diagrams.net" modified="2024-07-22T15:22:15.806Z" agent="Mozilla/5.0 (Windows NT 10.0; Win64; x64) AppleWebKit/537.36 (KHTML, like Gecko) Chrome/125.0.0.0 Safari/537.36" etag="-HiGgLcQU4QYlw0Sz1iA" version="24.7.2" type="google" pages="2">
  <diagram name="Page-1" id="pz5vtCbLQCtePPh6iLsi">
    <mxGraphModel grid="1" page="1" gridSize="10" guides="1" tooltips="1" connect="1" arrows="1" fold="1" pageScale="1" pageWidth="850" pageHeight="1100" math="0" shadow="0">
      <root>
        <mxCell id="0" />
        <mxCell id="1" parent="0" />
        <mxCell id="zHkMByEAVdY2l6HanBlv-6" value="createPost()" style="html=1;verticalAlign=bottom;endArrow=block;curved=0;rounded=0;" edge="1" parent="1">
          <mxGeometry width="80" relative="1" as="geometry">
            <mxPoint x="170" y="240" as="sourcePoint" />
            <mxPoint x="600" y="240" as="targetPoint" />
          </mxGeometry>
        </mxCell>
        <mxCell id="zHkMByEAVdY2l6HanBlv-7" value="allowEditorAccess" style="html=1;verticalAlign=bottom;endArrow=open;dashed=1;endSize=8;curved=0;rounded=0;" edge="1" parent="1">
          <mxGeometry relative="1" as="geometry">
            <mxPoint x="595" y="270" as="sourcePoint" />
            <mxPoint x="165" y="270" as="targetPoint" />
          </mxGeometry>
        </mxCell>
        <mxCell id="zHkMByEAVdY2l6HanBlv-8" value="Create post, edit, then delete" style="text;html=1;align=center;verticalAlign=middle;resizable=0;points=[];autosize=1;strokeColor=none;fillColor=none;" vertex="1" parent="1">
          <mxGeometry x="290" y="80" width="180" height="30" as="geometry" />
        </mxCell>
        <mxCell id="zHkMByEAVdY2l6HanBlv-9" value="uploadContent()" style="html=1;verticalAlign=bottom;endArrow=block;curved=0;rounded=0;" edge="1" parent="1">
          <mxGeometry width="80" relative="1" as="geometry">
            <mxPoint x="170" y="300" as="sourcePoint" />
            <mxPoint x="600" y="300" as="targetPoint" />
            <mxPoint as="offset" />
          </mxGeometry>
        </mxCell>
        <mxCell id="zHkMByEAVdY2l6HanBlv-10" value="success response" style="html=1;verticalAlign=bottom;endArrow=open;dashed=1;endSize=8;curved=0;rounded=0;" edge="1" parent="1">
          <mxGeometry relative="1" as="geometry">
            <mxPoint x="595" y="330" as="sourcePoint" />
            <mxPoint x="165" y="330" as="targetPoint" />
          </mxGeometry>
        </mxCell>
        <mxCell id="zHkMByEAVdY2l6HanBlv-11" value="editPost()" style="html=1;verticalAlign=bottom;endArrow=block;curved=0;rounded=0;" edge="1" parent="1">
          <mxGeometry width="80" relative="1" as="geometry">
            <mxPoint x="165" y="430" as="sourcePoint" />
            <mxPoint x="595" y="430" as="targetPoint" />
          </mxGeometry>
        </mxCell>
        <mxCell id="zHkMByEAVdY2l6HanBlv-12" value="allowEditorAccess" style="html=1;verticalAlign=bottom;endArrow=open;dashed=1;endSize=8;curved=0;rounded=0;" edge="1" parent="1">
          <mxGeometry relative="1" as="geometry">
            <mxPoint x="595" y="460" as="sourcePoint" />
            <mxPoint x="165" y="460" as="targetPoint" />
          </mxGeometry>
        </mxCell>
        <mxCell id="zHkMByEAVdY2l6HanBlv-13" value="uploadContent()" style="html=1;verticalAlign=bottom;endArrow=block;curved=0;rounded=0;" edge="1" parent="1">
          <mxGeometry width="80" relative="1" as="geometry">
            <mxPoint x="170" y="490" as="sourcePoint" />
            <mxPoint x="600" y="490" as="targetPoint" />
          </mxGeometry>
        </mxCell>
        <mxCell id="zHkMByEAVdY2l6HanBlv-14" value="success response" style="html=1;verticalAlign=bottom;endArrow=open;dashed=1;endSize=8;curved=0;rounded=0;" edge="1" parent="1">
          <mxGeometry relative="1" as="geometry">
            <mxPoint x="595" y="520" as="sourcePoint" />
            <mxPoint x="165" y="520" as="targetPoint" />
          </mxGeometry>
        </mxCell>
        <mxCell id="zHkMByEAVdY2l6HanBlv-15" value="deletePost()" style="html=1;verticalAlign=bottom;endArrow=block;curved=0;rounded=0;" edge="1" parent="1">
          <mxGeometry width="80" relative="1" as="geometry">
            <mxPoint x="170" y="600" as="sourcePoint" />
            <mxPoint x="600" y="600" as="targetPoint" />
          </mxGeometry>
        </mxCell>
        <mxCell id="zHkMByEAVdY2l6HanBlv-17" value="ask confirmation" style="html=1;verticalAlign=bottom;endArrow=open;dashed=1;endSize=8;curved=0;rounded=0;" edge="1" parent="1">
          <mxGeometry relative="1" as="geometry">
            <mxPoint x="600" y="630" as="sourcePoint" />
            <mxPoint x="170" y="630" as="targetPoint" />
          </mxGeometry>
        </mxCell>
        <mxCell id="zHkMByEAVdY2l6HanBlv-18" value="confirmPostDelete()" style="html=1;verticalAlign=bottom;endArrow=block;curved=0;rounded=0;" edge="1" parent="1">
          <mxGeometry width="80" relative="1" as="geometry">
            <mxPoint x="170" y="660" as="sourcePoint" />
            <mxPoint x="600" y="660" as="targetPoint" />
          </mxGeometry>
        </mxCell>
        <mxCell id="zHkMByEAVdY2l6HanBlv-19" value="success response" style="html=1;verticalAlign=bottom;endArrow=open;dashed=1;endSize=8;curved=0;rounded=0;" edge="1" parent="1">
          <mxGeometry relative="1" as="geometry">
            <mxPoint x="600" y="690" as="sourcePoint" />
            <mxPoint x="170" y="690" as="targetPoint" />
          </mxGeometry>
        </mxCell>
        <mxCell id="zHkMByEAVdY2l6HanBlv-20" value="Create community" style="text;html=1;align=center;verticalAlign=middle;resizable=0;points=[];autosize=1;strokeColor=none;fillColor=none;" vertex="1" parent="1">
          <mxGeometry x="320" y="890" width="120" height="30" as="geometry" />
        </mxCell>
        <mxCell id="vlWmV1o5nwXr9AoO_5x7-2" value="User" style="shape=umlLifeline;perimeter=lifelinePerimeter;whiteSpace=wrap;html=1;container=1;dropTarget=0;collapsible=0;recursiveResize=0;outlineConnect=0;portConstraint=eastwest;newEdgeStyle={&quot;curved&quot;:0,&quot;rounded&quot;:0};participant=umlActor;" vertex="1" parent="1">
          <mxGeometry x="150" y="920" width="20" height="300" as="geometry" />
        </mxCell>
        <mxCell id="vlWmV1o5nwXr9AoO_5x7-3" value="User" style="shape=umlLifeline;perimeter=lifelinePerimeter;whiteSpace=wrap;html=1;container=1;dropTarget=0;collapsible=0;recursiveResize=0;outlineConnect=0;portConstraint=eastwest;newEdgeStyle={&quot;curved&quot;:0,&quot;rounded&quot;:0};participant=umlActor;" vertex="1" parent="1">
          <mxGeometry x="150" y="115" width="20" height="605" as="geometry" />
        </mxCell>
        <mxCell id="vlWmV1o5nwXr9AoO_5x7-4" value=":Bulletin" style="shape=umlLifeline;perimeter=lifelinePerimeter;whiteSpace=wrap;html=1;container=1;dropTarget=0;collapsible=0;recursiveResize=0;outlineConnect=0;portConstraint=eastwest;newEdgeStyle={&quot;curved&quot;:0,&quot;rounded&quot;:0};" vertex="1" parent="1">
          <mxGeometry x="560" y="115" width="100" height="595" as="geometry" />
        </mxCell>
        <mxCell id="vlWmV1o5nwXr9AoO_5x7-5" value=":Bulletin" style="shape=umlLifeline;perimeter=lifelinePerimeter;whiteSpace=wrap;html=1;container=1;dropTarget=0;collapsible=0;recursiveResize=0;outlineConnect=0;portConstraint=eastwest;newEdgeStyle={&quot;curved&quot;:0,&quot;rounded&quot;:0};" vertex="1" parent="1">
          <mxGeometry x="560" y="920" width="100" height="300" as="geometry" />
        </mxCell>
        <mxCell id="vlWmV1o5nwXr9AoO_5x7-6" value="createCommunity()" style="html=1;verticalAlign=bottom;endArrow=block;curved=0;rounded=0;" edge="1" parent="1" target="vlWmV1o5nwXr9AoO_5x7-5">
          <mxGeometry width="80" relative="1" as="geometry">
            <mxPoint x="160.25" y="1000" as="sourcePoint" />
            <mxPoint x="599.75" y="1000" as="targetPoint" />
          </mxGeometry>
        </mxCell>
        <mxCell id="vlWmV1o5nwXr9AoO_5x7-7" value="return form to create community" style="html=1;verticalAlign=bottom;endArrow=open;dashed=1;endSize=8;curved=0;rounded=0;" edge="1" parent="1" target="vlWmV1o5nwXr9AoO_5x7-2">
          <mxGeometry relative="1" as="geometry">
            <mxPoint x="610" y="1040" as="sourcePoint" />
            <mxPoint x="530" y="1040" as="targetPoint" />
          </mxGeometry>
        </mxCell>
        <mxCell id="ZqfwfgFGLmr6CwdE0bKO-1" value="submitCommunityForm()" style="html=1;verticalAlign=bottom;endArrow=block;curved=0;rounded=0;" edge="1" parent="1" target="vlWmV1o5nwXr9AoO_5x7-5">
          <mxGeometry width="80" relative="1" as="geometry">
            <mxPoint x="160" y="1080" as="sourcePoint" />
            <mxPoint x="240" y="1080" as="targetPoint" />
          </mxGeometry>
        </mxCell>
        <mxCell id="ZqfwfgFGLmr6CwdE0bKO-2" value="success response" style="html=1;verticalAlign=bottom;endArrow=open;dashed=1;endSize=8;curved=0;rounded=0;" edge="1" parent="1" target="vlWmV1o5nwXr9AoO_5x7-2">
          <mxGeometry relative="1" as="geometry">
            <mxPoint x="610" y="1120" as="sourcePoint" />
            <mxPoint x="530" y="1120" as="targetPoint" />
          </mxGeometry>
        </mxCell>
        <mxCell id="ZqfwfgFGLmr6CwdE0bKO-3" value="Like a post and comment" style="text;html=1;align=center;verticalAlign=middle;resizable=0;points=[];autosize=1;strokeColor=none;fillColor=none;" vertex="1" parent="1">
          <mxGeometry x="300" y="1288" width="160" height="30" as="geometry" />
        </mxCell>
        <mxCell id="ZqfwfgFGLmr6CwdE0bKO-4" value="User" style="shape=umlLifeline;perimeter=lifelinePerimeter;whiteSpace=wrap;html=1;container=1;dropTarget=0;collapsible=0;recursiveResize=0;outlineConnect=0;portConstraint=eastwest;newEdgeStyle={&quot;curved&quot;:0,&quot;rounded&quot;:0};participant=umlActor;" vertex="1" parent="1">
          <mxGeometry x="150" y="1340" width="20" height="300" as="geometry" />
        </mxCell>
        <mxCell id="ZqfwfgFGLmr6CwdE0bKO-5" value=":Bulletin" style="shape=umlLifeline;perimeter=lifelinePerimeter;whiteSpace=wrap;html=1;container=1;dropTarget=0;collapsible=0;recursiveResize=0;outlineConnect=0;portConstraint=eastwest;newEdgeStyle={&quot;curved&quot;:0,&quot;rounded&quot;:0};" vertex="1" parent="1">
          <mxGeometry x="560" y="1340" width="100" height="300" as="geometry" />
        </mxCell>
        <mxCell id="ZqfwfgFGLmr6CwdE0bKO-6" value="likePost()" style="html=1;verticalAlign=bottom;endArrow=block;curved=0;rounded=0;" edge="1" parent="1" target="ZqfwfgFGLmr6CwdE0bKO-5">
          <mxGeometry width="80" relative="1" as="geometry">
            <mxPoint x="160" y="1440" as="sourcePoint" />
            <mxPoint x="240" y="1440" as="targetPoint" />
          </mxGeometry>
        </mxCell>
        <mxCell id="ZqfwfgFGLmr6CwdE0bKO-7" value="success response" style="html=1;verticalAlign=bottom;endArrow=open;dashed=1;endSize=8;curved=0;rounded=0;" edge="1" parent="1" target="ZqfwfgFGLmr6CwdE0bKO-4">
          <mxGeometry relative="1" as="geometry">
            <mxPoint x="609.5" y="1480" as="sourcePoint" />
            <mxPoint x="380" y="1480" as="targetPoint" />
          </mxGeometry>
        </mxCell>
        <mxCell id="ZqfwfgFGLmr6CwdE0bKO-8" value="postComment()" style="html=1;verticalAlign=bottom;endArrow=block;curved=0;rounded=0;" edge="1" parent="1" target="ZqfwfgFGLmr6CwdE0bKO-5">
          <mxGeometry width="80" relative="1" as="geometry">
            <mxPoint x="160" y="1520" as="sourcePoint" />
            <mxPoint x="240" y="1520" as="targetPoint" />
          </mxGeometry>
        </mxCell>
        <mxCell id="ZqfwfgFGLmr6CwdE0bKO-9" value="allowEditorAccess" style="html=1;verticalAlign=bottom;endArrow=open;dashed=1;endSize=8;curved=0;rounded=0;" edge="1" parent="1" target="ZqfwfgFGLmr6CwdE0bKO-4">
          <mxGeometry relative="1" as="geometry">
            <mxPoint x="610" y="1550" as="sourcePoint" />
            <mxPoint x="530" y="1550" as="targetPoint" />
          </mxGeometry>
        </mxCell>
        <mxCell id="ZqfwfgFGLmr6CwdE0bKO-10" value="submitComment()" style="html=1;verticalAlign=bottom;endArrow=block;curved=0;rounded=0;" edge="1" parent="1" target="ZqfwfgFGLmr6CwdE0bKO-5">
          <mxGeometry width="80" relative="1" as="geometry">
            <mxPoint x="160" y="1590" as="sourcePoint" />
            <mxPoint x="240" y="1590" as="targetPoint" />
          </mxGeometry>
        </mxCell>
        <mxCell id="ZqfwfgFGLmr6CwdE0bKO-11" value="success response" style="html=1;verticalAlign=bottom;endArrow=open;dashed=1;endSize=8;curved=0;rounded=0;" edge="1" parent="1">
          <mxGeometry relative="1" as="geometry">
            <mxPoint x="605.25" y="1620" as="sourcePoint" />
            <mxPoint x="154.75" y="1620" as="targetPoint" />
          </mxGeometry>
        </mxCell>
      </root>
    </mxGraphModel>
  </diagram>
  <diagram id="SoegLSIqVGBqgDFyHytp" name="Page-2">
    <mxGraphModel grid="1" page="1" gridSize="10" guides="1" tooltips="1" connect="1" arrows="1" fold="1" pageScale="1" pageWidth="850" pageHeight="1100" math="0" shadow="0">
      <root>
        <mxCell id="0" />
        <mxCell id="1" parent="0" />
      </root>
    </mxGraphModel>
  </diagram>
</mxfile>
